# Blender v2.93.2 OBJ File: 'cartridge.blend'
# www.blender.org
mtllib cartridge.mtl
o Cube
v 12.000000 -21.948338 -2.093740
v -12.000000 -21.948338 -2.093741
v 12.000000 -21.948338 2.093741
v -12.000000 -21.948338 2.093740
v 12.000000 -15.000000 -2.093740
v -12.000000 -15.000000 -2.093741
v 12.000000 -15.000000 2.093741
v -12.000000 -15.000000 2.093740
v 12.000000 -16.151583 -2.093740
v 12.000000 -16.151583 2.093741
v -12.000000 -16.151583 2.093740
v -12.000000 -16.151583 -2.093741
v 12.000000 -19.049961 -2.093740
v 12.000000 -19.049961 2.093741
v -12.000000 -19.049961 2.093740
v -12.000000 -19.049961 -2.093741
v 12.000000 -17.600773 -2.093740
v 12.000000 -17.600773 2.093741
v -12.000000 -17.600773 2.093740
v -12.000000 -17.600773 -2.093741
v 12.000000 -20.499149 -2.093740
v 12.000000 -20.499149 2.093741
v -12.000000 -20.499149 2.093740
v -12.000000 -20.499149 -2.093741
v 12.000000 -21.223743 -2.093740
v 12.000000 -21.223743 2.093741
v -12.000000 -21.223743 2.093740
v -12.000000 -21.223743 -2.093741
v 12.000000 -19.774555 -2.093740
v 12.000000 -19.774555 2.093741
v -12.000000 -19.774555 2.093740
v -12.000000 -19.774555 -2.093741
v 12.000000 -18.325367 -2.093740
v 12.000000 -18.325367 2.093741
v -12.000000 -18.325367 2.093740
v -12.000000 -18.325367 -2.093741
v 12.000000 -16.876177 -2.093740
v 12.000000 -16.876177 2.093741
v -12.000000 -16.876177 2.093740
v -12.000000 -16.876177 -2.093741
v 11.778666 -16.876177 -2.055123
v 11.778666 -16.151583 -2.055123
v 11.778666 -16.876177 2.055124
v 11.778666 -16.151583 2.055124
v -11.778666 -16.876177 2.055123
v -11.778666 -16.151583 2.055123
v -11.778666 -16.876177 -2.055124
v -11.778666 -16.151583 -2.055124
v 11.778666 -19.774555 -2.055123
v 11.778666 -19.049961 -2.055123
v 11.778666 -19.774555 2.055124
v 11.778666 -19.049961 2.055124
v -11.778666 -19.774555 2.055123
v -11.778666 -19.049961 2.055123
v -11.778666 -19.774555 -2.055124
v -11.778666 -19.049961 -2.055124
v 11.778666 -18.325367 -2.055123
v 11.778666 -17.600773 -2.055123
v 11.778666 -18.325367 2.055124
v 11.778666 -17.600773 2.055124
v -11.778666 -18.325367 2.055123
v -11.778666 -17.600773 2.055123
v -11.778666 -18.325367 -2.055124
v -11.778666 -17.600773 -2.055124
v 11.778666 -21.223743 -2.055123
v 11.778666 -20.499149 -2.055123
v 11.778666 -21.223743 2.055124
v 11.778666 -20.499149 2.055124
v -11.778666 -21.223743 2.055123
v -11.778666 -20.499149 2.055123
v -11.778666 -21.223743 -2.055124
v -11.778666 -20.499149 -2.055124
v 11.778666 -16.876177 -2.055123
v 11.778666 -16.151583 -2.055123
v 11.778666 -16.876177 2.055124
v 11.778666 -16.151583 2.055124
v -11.778666 -16.876177 2.055123
v -11.778666 -16.151583 2.055123
v -11.778666 -16.876177 -2.055124
v -11.778666 -16.151583 -2.055124
v 11.778666 -19.774555 -2.055123
v 11.778666 -19.049961 -2.055123
v 11.778666 -19.774555 2.055124
v 11.778666 -19.049961 2.055124
v -11.778666 -19.774555 2.055123
v -11.778666 -19.049961 2.055123
v -11.778666 -19.774555 -2.055124
v -11.778666 -19.049961 -2.055124
v 11.778666 -18.325367 -2.055123
v 11.778666 -17.600773 -2.055123
v 11.778666 -18.325367 2.055124
v 11.778666 -17.600773 2.055124
v -11.778666 -18.325367 2.055123
v -11.778666 -17.600773 2.055123
v -11.778666 -18.325367 -2.055124
v -11.778666 -17.600773 -2.055124
v 11.778666 -21.223743 -2.055123
v 11.778666 -20.499149 -2.055123
v 11.778666 -21.223743 2.055124
v 11.778666 -20.499149 2.055124
v -11.778666 -21.223743 2.055123
v -11.778666 -20.499149 2.055123
v -11.778666 -21.223743 -2.055124
v -11.778666 -20.499149 -2.055124
vt 0.625000 0.500000
vt 0.875000 0.500000
vt 0.875000 0.750000
vt 0.625000 0.750000
vt 0.145018 0.124301
vt 0.000000 0.000000
vt 0.000000 0.000000
vt 0.103584 0.124301
vt 0.000000 0.000000
vt 0.103584 0.082868
vt 0.000000 0.000000
vt 0.145018 0.082868
vt 0.692505 0.593575
vt 0.494646 0.593575
vt 0.494646 0.593575
vt 0.692505 0.593575
vt 0.145018 0.124301
vt 0.145018 0.082868
vt 0.601257 0.515363
vt 0.601257 0.343575
vt 0.601257 0.343575
vt 0.601257 0.515363
vt 0.494646 0.395717
vt 0.494646 0.395717
vt 0.692505 0.395717
vt 0.692505 0.395717
vt 0.510009 0.291434
vt 0.510009 0.437151
vt 0.510009 0.437151
vt 0.510009 0.291434
vt 0.299115 0.358938
vt 0.418761 0.358938
vt 0.418761 0.358938
vt 0.299115 0.358938
vt 0.364292 0.291434
vt 0.364292 0.291434
vt 0.299115 0.239292
vt 0.299115 0.239292
vt 0.364292 0.437151
vt 0.364292 0.437151
vt 0.418761 0.239292
vt 0.418761 0.239292
vt 0.783752 0.671788
vt 0.783752 0.447858
vt 0.783752 0.447858
vt 0.783752 0.671788
vt 0.559823 0.447858
vt 0.559823 0.447858
vt 0.559823 0.671788
vt 0.429469 0.343575
vt 0.429469 0.515363
vt 0.327514 0.280726
vt 0.236266 0.202514
vt 0.168761 0.202514
vt 0.233938 0.280726
vt 0.168761 0.135009
vt 0.233938 0.187151
vt 0.236266 0.135009
vt 0.327514 0.187151
vt 0.559823 0.671788
vt 0.559823 0.671788
vt 0.559823 0.447858
vt 0.103584 0.124301
vt 0.103584 0.082868
vt 0.103584 0.082868
vt 0.103584 0.124301
vt 0.236266 0.135009
vt 0.168761 0.135009
vt 0.168761 0.135009
vt 0.236266 0.135009
vt 0.783752 0.671788
vt 0.145018 0.082868
vt 0.168761 0.202514
vt 0.168761 0.202514
vt 0.494646 0.593575
vt 0.692505 0.593575
vt 0.145018 0.124301
vt 0.236266 0.202514
vt 0.236266 0.202514
vt 0.494646 0.395717
vt 0.418761 0.358938
vt 0.299115 0.358938
vt 0.692505 0.395717
vt 0.299115 0.239292
vt 0.510009 0.437151
vt 0.510009 0.291434
vt 0.418761 0.239292
vt 0.429469 0.343575
vt 0.429469 0.515363
vt 0.233938 0.280726
vt 0.327514 0.280726
vt 0.233938 0.187151
vt 0.327514 0.187151
vt 0.601257 0.515363
vt 0.364292 0.437151
vt 0.429469 0.515363
vt 0.364292 0.291434
vt 0.429469 0.343575
vt 0.601257 0.343575
vt 0.327514 0.280726
vt 0.233938 0.280726
vt 0.233938 0.187151
vt 0.327514 0.187151
vt 0.783752 0.447858
vn 0.0000 -1.0000 0.0000
vn -1.0000 0.0000 0.0000
vn 0.0000 0.0000 -1.0000
vn 1.0000 0.0000 0.0000
vn -0.0000 0.0000 1.0000
vn 0.0000 1.0000 0.0000
usemtl Material
s off
f 1/1/1 3/2/1 4/3/1 2/4/1
f 11/5/2 8/6/2 6/7/2 12/8/2
f 12/8/3 6/7/3 5/9/3 9/10/3
f 9/10/4 5/9/4 7/11/4 10/12/4
f 10/12/5 7/11/5 8/6/5 11/5/5
f 23/13/1 24/14/1 72/15/1 70/16/1
f 10/12/1 11/5/1 46/17/1 44/18/1
f 31/19/6 30/20/6 51/21/6 53/22/6
f 24/14/1 21/23/1 66/24/1 72/15/1
f 21/23/1 22/25/1 68/26/1 66/24/1
f 14/27/1 15/28/1 54/29/1 52/30/1
f 36/31/6 35/32/6 61/33/6 63/34/6
f 22/25/1 23/13/1 70/16/1 68/26/1
f 13/35/1 14/27/1 52/30/1 50/36/1
f 33/37/6 36/31/6 63/34/6 57/38/6
f 16/39/1 13/35/1 50/36/1 56/40/1
f 34/41/6 33/37/6 57/38/6 59/42/6
f 27/43/6 26/44/6 67/45/6 69/46/6
f 15/28/1 16/39/1 56/40/1 54/29/1
f 35/32/6 34/41/6 59/42/6 61/33/6
f 26/44/6 25/47/6 65/48/6 67/45/6
f 4/3/2 27/43/2 28/49/2 2/4/2
f 2/4/3 28/49/3 25/47/3 1/1/3
f 1/1/4 25/47/4 26/44/4 3/2/4
f 3/2/5 26/44/5 27/43/5 4/3/5
f 22/25/5 30/20/5 31/19/5 23/13/5
f 21/23/4 29/50/4 30/20/4 22/25/4
f 24/14/3 32/51/3 29/50/3 21/23/3
f 23/13/2 31/19/2 32/51/2 24/14/2
f 14/27/5 34/41/5 35/32/5 15/28/5
f 13/35/4 33/37/4 34/41/4 14/27/4
f 16/39/3 36/31/3 33/37/3 13/35/3
f 15/28/2 35/32/2 36/31/2 16/39/2
f 19/52/2 39/53/2 40/54/2 20/55/2
f 20/55/3 40/54/3 37/56/3 17/57/3
f 17/57/4 37/56/4 38/58/4 18/59/4
f 18/59/5 38/58/5 39/53/5 19/52/5
f 65/48/5 71/60/5 103/61/5 97/62/5
f 48/63/5 42/64/5 74/65/5 80/66/5
f 43/67/5 41/68/5 73/69/5 75/70/5
f 71/60/5 69/46/5 101/71/5 103/61/5
f 42/64/5 44/18/5 76/72/5 74/65/5
f 41/68/5 47/73/5 79/74/5 73/69/5
f 70/16/5 72/15/5 104/75/5 102/76/5
f 44/18/5 46/17/5 78/77/5 76/72/5
f 47/73/5 45/78/5 77/79/5 79/74/5
f 72/15/5 66/24/5 98/80/5 104/75/5
f 63/34/5 61/33/5 93/81/5 95/82/5
f 66/24/5 68/26/5 100/83/5 98/80/5
f 57/38/5 63/34/5 95/82/5 89/84/5
f 52/30/5 54/29/5 86/85/5 84/86/5
f 68/26/5 70/16/5 102/76/5 100/83/5
f 59/42/5 57/38/5 89/84/5 91/87/5
f 30/20/6 29/50/6 49/88/6 51/21/6
f 9/10/1 10/12/1 44/18/1 42/64/1
f 29/50/6 32/51/6 55/89/6 49/88/6
f 12/8/1 9/10/1 42/64/1 48/63/1
f 40/54/6 39/53/6 45/78/6 47/73/6
f 19/52/1 20/55/1 64/90/1 62/91/1
f 32/51/6 31/19/6 53/22/6 55/89/6
f 11/5/1 12/8/1 48/63/1 46/17/1
f 37/56/6 40/54/6 47/73/6 41/68/6
f 20/55/1 17/57/1 58/92/1 64/90/1
f 38/58/6 37/56/6 41/68/6 43/67/6
f 17/57/1 18/59/1 60/93/1 58/92/1
f 28/49/6 27/43/6 69/46/6 71/60/6
f 39/53/6 38/58/6 43/67/6 45/78/6
f 18/59/1 19/52/1 62/91/1 60/93/1
f 25/47/6 28/49/6 71/60/6 65/48/6
f 75/70/5 76/72/5 78/77/5 77/79/5
f 73/69/4 74/65/4 76/72/4 75/70/4
f 79/74/3 80/66/3 74/65/3 73/69/3
f 77/79/2 78/77/2 80/66/2 79/74/2
f 85/94/2 86/85/2 88/95/2 87/96/2
f 87/96/3 88/95/3 82/97/3 81/98/3
f 81/98/4 82/97/4 84/86/4 83/99/4
f 83/99/5 84/86/5 86/85/5 85/94/5
f 93/81/2 94/100/2 96/101/2 95/82/2
f 95/82/3 96/101/3 90/102/3 89/84/3
f 89/84/4 90/102/4 92/103/4 91/87/4
f 91/87/5 92/103/5 94/100/5 93/81/5
f 99/104/5 100/83/5 102/76/5 101/71/5
f 97/62/4 98/80/4 100/83/4 99/104/4
f 103/61/3 104/75/3 98/80/3 97/62/3
f 101/71/2 102/76/2 104/75/2 103/61/2
f 62/91/5 64/90/5 96/101/5 94/100/5
f 45/78/5 43/67/5 75/70/5 77/79/5
f 46/17/5 48/63/5 80/66/5 78/77/5
f 67/45/5 65/48/5 97/62/5 99/104/5
f 64/90/5 58/92/5 90/102/5 96/101/5
f 69/46/5 67/45/5 99/104/5 101/71/5
f 58/92/5 60/93/5 92/103/5 90/102/5
f 53/22/5 51/21/5 83/99/5 85/94/5
f 60/93/5 62/91/5 94/100/5 92/103/5
f 51/21/5 49/88/5 81/98/5 83/99/5
f 49/88/5 55/89/5 87/96/5 81/98/5
f 54/29/5 56/40/5 88/95/5 86/85/5
f 55/89/5 53/22/5 85/94/5 87/96/5
f 56/40/5 50/36/5 82/97/5 88/95/5
f 61/33/5 59/42/5 91/87/5 93/81/5
f 50/36/5 52/30/5 84/86/5 82/97/5
f 6/7/6 8/6/6 7/11/6 5/9/6
o Cube.001
v 12.000000 0.000000 -1.460485
v -12.000000 0.000000 -1.460485
v 12.000000 0.000000 1.460485
v -12.000000 0.000000 1.460485
v 12.000000 -15.000000 -1.460485
v -12.000000 -15.000000 -1.460485
v 12.000000 -15.000000 1.460485
v -12.000000 -15.000000 1.460485
v -10.939302 -15.000000 -2.093741
v -10.939302 -15.000000 2.093740
v 10.939302 -15.000000 2.093741
v 10.939302 -15.000000 -2.093740
v -12.000000 -4.032291 -0.000001
v -9.009826 -15.000000 -2.093741
v -10.939302 0.000000 -0.000000
v -9.009826 -15.000000 2.093740
v -12.000000 -15.000000 -0.000001
v 9.009826 -15.000000 2.093741
v -12.000000 0.000000 -0.000001
v 9.009826 -15.000000 -2.093740
v 12.000000 -4.032291 -1.460485
v -12.000000 -4.032291 -1.460485
v 12.000000 -4.032291 1.460485
v -10.939302 -4.032291 2.093740
v -10.939302 -4.032291 -2.093741
v 10.939302 -4.032291 -2.093740
v 10.939302 -4.032291 2.093741
v -12.000000 -4.032291 1.460485
v -9.009826 -4.032291 2.093740
v -9.009826 -4.032291 -2.093741
v 9.009826 -4.032291 -2.093740
v 9.009826 -4.032291 2.093741
v -12.000000 -14.050160 1.460485
v -12.000000 -14.050160 -1.460485
v -10.939302 -14.050160 2.093740
v 12.000000 -14.050160 -1.460485
v 12.000000 -14.050160 1.460485
v 10.939302 -14.050160 -2.093740
v -10.939302 -14.050160 -2.093741
v 10.939302 -14.050160 2.093741
v -9.009826 -14.050160 2.093740
v -9.009826 -14.050160 -2.093741
v 9.009826 -14.050160 -2.093740
v 9.009826 -14.050160 2.093741
v 9.009826 -14.050160 1.910939
v 9.009826 -4.032291 1.910939
v -9.009826 -4.032291 1.910938
v -9.009826 -14.050160 1.910938
v -9.009826 -14.050160 -1.910939
v -9.009826 -4.032291 -1.910939
v 9.009826 -4.032291 -1.910938
v 9.009826 -14.050160 -1.910938
v -9.009826 0.000000 2.093740
v -10.939302 0.000000 2.093740
v -10.939302 0.000000 -2.093741
v 9.009826 0.000000 -2.093740
v 10.939302 0.000000 -2.093740
v 10.939302 0.000000 2.093741
v 9.009826 0.000000 2.093741
v -9.009826 0.000000 -2.093741
v -12.000000 -14.050160 -0.000001
v 12.000000 0.000000 0.000001
v 12.000000 -15.000000 0.000001
v 10.939302 0.000000 0.000000
v 12.000000 -4.032291 0.000001
v 12.000000 -14.050160 0.000001
v 12.000000 -9.041226 -1.460485
v -12.000000 -9.041226 -1.460485
v 12.000000 -9.041226 1.460485
v -10.939302 -9.041226 2.093740
v -10.939302 -9.041226 -2.093741
v 10.939302 -9.041226 -2.093740
v 10.939302 -9.041226 2.093741
v -9.009826 -9.041226 2.093740
v -9.009826 -9.041226 -2.093741
v 9.009826 -9.041226 -2.093740
v 9.009826 -9.041226 2.093741
v -12.000000 -9.041225 1.460485
v 9.009826 -9.041225 1.910939
v -9.009826 -9.041226 1.910938
v -9.009826 -9.041225 -1.910939
v 9.009826 -9.041226 -1.910938
v -12.000000 -9.041225 -0.000001
v 12.000000 -9.041225 0.000001
vt 0.250000 0.718750
vt 0.375000 0.718750
vt 0.375000 0.750000
vt 0.250000 0.750000
vt 0.492188 0.218750
vt 0.531250 0.218750
vt 0.531250 0.250000
vt 0.492188 0.250000
vt 0.414062 0.718750
vt 0.414062 0.750000
vt 0.414062 0.375000
vt 0.414062 0.500000
vt 0.375000 0.500000
vt 0.375000 0.375000
vt 0.414062 0.875000
vt 0.414062 1.000000
vt 0.375000 1.000000
vt 0.375000 0.875000
vt 0.414062 0.171875
vt 0.414062 0.218750
vt 0.375000 0.218750
vt 0.375000 0.171875
vt 0.492188 0.000000
vt 0.531250 0.000000
vt 0.531250 0.031250
vt 0.492188 0.031250
vt 0.414062 0.671875
vt 0.375000 0.671875
vt 0.414062 0.531250
vt 0.375000 0.531250
vt 0.250000 0.500000
vt 0.250000 0.531250
vt 0.453125 0.531250
vt 0.453125 0.500000
vt 0.453125 0.078125
vt 0.414062 0.078125
vt 0.414062 0.031250
vt 0.453125 0.031250
vt 0.375000 0.078125
vt 0.375000 0.031250
vt 0.414062 0.578125
vt 0.375000 0.578125
vt 0.453125 0.578125
vt 0.531250 0.750000
vt 0.531250 0.875000
vt 0.492188 0.875000
vt 0.492188 0.750000
vt 0.453125 0.718750
vt 0.453125 0.671875
vt 0.453125 0.000000
vt 0.453125 0.218750
vt 0.453125 0.171875
vt 0.453125 0.875000
vt 0.453125 0.750000
vt 0.453125 0.375000
vt 0.414062 0.250000
vt 0.453125 0.250000
vt 0.375000 0.250000
vt 0.375000 0.000000
vt 0.414062 0.000000
vt 0.531250 0.718750
vt 0.492188 0.718750
vt 0.531250 0.375000
vt 0.531250 0.500000
vt 0.492188 0.500000
vt 0.492188 0.375000
vt 0.531250 1.000000
vt 0.492188 1.000000
vt 0.531250 0.171875
vt 0.492188 0.171875
vt 0.531250 0.671875
vt 0.492188 0.671875
vt 0.531250 0.531250
vt 0.492188 0.531250
vt 0.531250 0.578125
vt 0.492188 0.578125
vt 0.531250 0.078125
vt 0.492188 0.078125
vt 0.453125 0.171875
vt 0.414062 0.171875
vt 0.414062 0.078125
vt 0.453125 0.078125
vt 0.492188 0.171875
vt 0.492188 0.078125
vt 0.453125 0.671875
vt 0.414062 0.671875
vt 0.414062 0.578125
vt 0.453125 0.578125
vt 0.492188 0.671875
vt 0.492188 0.578125
vt 0.375000 0.375000
vt 0.125000 0.718750
vt 0.453125 1.000000
vt 0.125000 0.750000
vt 0.125000 0.500000
vt 0.125000 0.531250
vn 0.0000 1.0000 0.0000
vn 0.5126 0.0000 0.8586
vn -0.5126 0.0000 -0.8586
vn 1.0000 0.0000 0.0000
vn -1.0000 0.0000 0.0000
vn 0.0000 0.0000 1.0000
vn -0.5126 0.0000 0.8586
vn 0.0000 0.0000 -1.0000
vn 0.5126 0.0000 -0.8586
vn 0.0000 -1.0000 0.0000
usemtl Material
s off
f 119/105/7 159/106/7 106/107/7 123/108/7
f 144/109/8 115/110/8 111/111/8 141/112/8
f 129/113/9 126/114/9 106/107/9 159/106/9
f 169/115/10 125/116/10 105/117/10 166/118/10
f 117/119/11 132/120/11 108/121/11 123/122/11
f 136/123/12 131/124/12 162/125/12 163/126/12
f 137/127/13 112/128/13 114/129/13 139/130/13
f 134/131/14 129/113/14 159/106/14 164/132/14
f 125/116/15 130/133/15 161/134/15 105/117/15
f 166/135/7 105/117/7 161/134/7 168/136/7
f 176/137/15 130/133/15 125/116/15 171/138/15
f 178/139/12 133/140/12 128/141/12 174/142/12
f 128/141/12 133/140/12 157/143/12 158/144/12
f 133/140/12 136/123/12 163/126/12 157/143/12
f 130/133/14 135/145/14 160/146/14 161/134/14
f 180/147/14 135/145/14 130/133/14 176/137/14
f 110/148/11 121/149/11 165/150/11 138/151/11
f 135/145/14 134/131/14 164/132/14 160/146/14
f 175/152/14 129/113/14 134/131/14 179/153/14
f 182/154/13 137/127/13 139/130/13 174/142/13
f 177/155/12 131/124/12 136/123/12 181/156/12
f 187/157/11 172/158/11 138/151/11 165/150/11
f 188/159/10 169/115/10 127/160/10 173/161/10
f 172/158/9 126/114/9 129/113/9 175/152/9
f 177/155/8 173/161/8 127/160/8 131/124/8
f 162/125/8 131/124/8 127/160/8 107/162/8
f 108/163/13 132/164/13 128/141/13 158/144/13
f 113/165/9 110/148/9 138/151/9 143/166/9
f 167/167/10 109/168/10 140/169/10 170/170/10
f 121/149/11 112/171/11 137/172/11 165/150/11
f 122/173/12 115/110/12 144/109/12 148/174/12
f 118/175/14 113/165/14 143/166/14 146/176/14
f 109/168/15 116/177/15 142/178/15 140/169/15
f 124/179/14 118/175/14 146/176/14 147/180/14
f 120/181/12 122/173/12 148/174/12 145/182/12
f 114/129/12 120/181/12 145/182/12 139/130/12
f 116/177/14 124/179/14 147/180/14 142/178/14
f 183/183/12 150/184/12 151/185/12 184/186/12
f 181/156/11 183/183/11 149/187/11 148/174/11
f 133/140/16 151/185/16 150/184/16 136/123/16
f 178/139/10 184/186/10 151/185/10 133/140/10
f 148/174/7 149/187/7 152/188/7 145/182/7
f 185/189/14 154/190/14 155/191/14 186/192/14
f 179/153/10 185/189/10 153/193/10 146/176/10
f 135/145/16 155/191/16 154/190/16 134/131/16
f 180/147/11 186/192/11 155/191/11 135/145/11
f 146/176/7 153/193/7 156/194/7 147/180/7
f 157/143/7 163/126/7 162/125/7 168/195/7 161/134/7 160/146/7 164/132/7 159/106/7 119/105/7 158/196/7
f 182/197/11 187/157/11 165/150/11 137/172/11
f 126/114/11 117/119/11 123/122/11 106/107/11
f 158/196/7 119/105/7 123/108/7 108/198/7
f 111/111/10 167/167/10 170/170/10 141/112/10
f 171/138/10 125/116/10 169/115/10 188/159/10
f 107/199/7 166/135/7 168/136/7 162/200/7
f 127/160/10 169/115/10 166/118/10 107/162/10
f 140/169/10 171/138/10 188/159/10 170/170/10
f 132/120/11 117/119/11 187/157/11 182/197/11
f 147/180/11 156/194/11 186/192/11 180/147/11
f 134/131/10 154/190/10 185/189/10 179/153/10
f 153/193/14 185/189/14 186/192/14 156/194/14
f 145/182/10 152/188/10 184/186/10 178/139/10
f 136/123/11 150/184/11 183/183/11 181/156/11
f 149/187/12 183/183/12 184/186/12 152/188/12
f 144/109/8 141/112/8 173/161/8 177/155/8
f 138/151/9 172/158/9 175/152/9 143/166/9
f 170/170/10 188/159/10 173/161/10 141/112/10
f 117/119/11 126/114/11 172/158/11 187/157/11
f 144/109/12 177/155/12 181/156/12 148/174/12
f 132/164/13 182/154/13 174/142/13 128/141/13
f 143/166/14 175/152/14 179/153/14 146/176/14
f 147/180/14 180/147/14 176/137/14 142/178/14
f 145/182/12 178/139/12 174/142/12 139/130/12
f 142/178/15 176/137/15 171/138/15 140/169/15
